<svg width="209" height="209" viewBox="0 0 209 209" fill="none" xmlns="http://www.w3.org/2000/svg">
<path fill-rule="evenodd" clip-rule="evenodd" d="M39.3154 2.52392e-05H60.7879V17.4337H39.3154C33.5197 17.4312 27.9602 19.7253 23.8585 23.8119C21.8294 25.8403 20.2248 28.2513 19.1379 30.9044C18.0306 33.5449 17.4517 36.3761 17.4338 39.2385V65.7207H4.86631e-05V39.2385C0.0152502 34.0773 1.06398 28.9711 3.0846 24.2201C5.06236 19.4581 7.95737 15.1298 11.6055 11.4807C15.2609 7.83872 19.5978 4.94922 24.3697 2.97651C29.1048 1.00593 34.1851 -0.00582651 39.3154 2.52392e-05ZM155.608 2.52392e-05H169.634C174.795 -0.00407222 179.905 1.0194 184.664 3.01052C189.436 4.98441 193.772 7.87377 197.429 11.5148L198.059 12.1441C205.082 19.4219 209.004 29.1342 209 39.2385V65.7207H191.566V39.2385C191.556 36.3808 190.977 33.5536 189.862 30.9214C188.861 28.5292 187.448 26.3304 185.687 24.4242L185.09 23.8119C183.046 21.8021 180.633 20.2027 177.984 19.1005C175.338 17.997 172.501 17.4193 169.634 17.3997H155.608V2.52392e-05ZM208.949 140.354V169.761H208.898C208.898 174.898 207.884 179.984 205.915 184.729C203.931 189.487 201.037 193.814 197.395 197.468C193.756 201.12 189.43 204.018 184.666 205.997C179.902 207.976 174.794 208.996 169.634 209H155.608V191.6H169.599C172.47 191.595 175.312 191.025 177.962 189.922C180.611 188.818 183.016 187.204 185.039 185.171C187.074 183.137 188.694 180.728 189.811 178.079C190.926 175.446 191.505 172.619 191.515 169.761V140.354H208.949ZM60.7879 209H39.3154V208.966C34.1684 208.973 29.0712 207.962 24.3186 205.99C19.5421 204.016 15.1997 201.127 11.5373 197.485L11.009 196.89C7.49933 193.273 4.72699 189.01 2.84602 184.338C0.958726 179.709 -0.00790307 174.758 4.86631e-05 169.761V140.354H17.4167V169.761C17.4125 172.523 17.939 175.26 18.9675 177.824C19.9953 180.398 21.5048 182.753 23.4154 184.763L23.8585 185.171C25.8836 187.206 28.2916 188.822 30.9442 189.925C33.5967 191.028 36.4416 191.598 39.3154 191.6H60.7879V209Z" fill="#424246"/>
</svg>
